<svg width="86" height="49" viewBox="0 0 86 49" fill="none" xmlns="http://www.w3.org/2000/svg">
<g clip-path="url(#clip0_1259_234)">
<path d="M25.3757 43.6634C25.2719 43.5572 25.1498 43.4717 25.0174 43.4044C24.9498 43.3707 24.8797 43.3396 24.807 43.3137C24.8693 43.28 24.9265 43.2437 24.9836 43.2023C25.0745 43.1323 25.155 43.0494 25.2225 42.9587C25.3134 42.8369 25.3835 42.7022 25.4329 42.5571C25.5757 42.0804 25.5393 41.57 25.3316 41.1192C25.2147 40.8937 25.0459 40.6968 24.8434 40.5414C24.6356 40.3833 24.3967 40.2667 24.1448 40.202C23.8799 40.1294 23.6073 40.0931 23.332 40.0931H21.1091V46.9436H23.5813C23.8877 46.9436 24.1916 46.8943 24.4798 46.7959C24.7473 46.7078 24.9966 46.5679 25.2121 46.3839C25.4173 46.2077 25.5835 45.9901 25.6977 45.744C25.8172 45.4823 25.8795 45.1947 25.8743 44.9071C25.8899 44.4407 25.7081 43.9925 25.3757 43.666V43.6634ZM22.2829 41.2047H23.293C23.5527 41.1969 23.8098 41.2642 24.0306 41.4016C24.2409 41.557 24.35 41.8135 24.3214 42.0726C24.3474 42.3136 24.2487 42.5519 24.0617 42.7048C23.8332 42.8447 23.5683 42.9121 23.3008 42.8965H22.2829V41.2047ZM24.3604 45.6092C24.1162 45.7569 23.8332 45.8321 23.5475 45.8243H22.2829V44.0106H23.5371C23.8228 44.0003 24.1059 44.0728 24.35 44.2205C24.7343 44.5392 24.7888 45.1092 24.4694 45.4926C24.4331 45.5367 24.3941 45.5756 24.35 45.6118H24.3604V45.6092Z" fill="white"/>
<path d="M23.5813 47.0497H21V39.9816H23.3372C23.6202 39.9816 23.9033 40.0205 24.1786 40.0956C24.446 40.1656 24.6953 40.2874 24.9161 40.4532C25.1316 40.6164 25.3108 40.8263 25.4355 41.0672C25.5757 41.3445 25.6432 41.6528 25.6354 41.9637C25.6406 42.1761 25.6094 42.3886 25.5445 42.5907C25.4926 42.7462 25.4147 42.8912 25.316 43.0234C25.2407 43.1192 25.1524 43.2073 25.0563 43.2825H25.0771C25.2225 43.355 25.3524 43.4509 25.4666 43.5649C25.8172 43.9121 26.0042 44.3914 25.986 44.8837C25.9886 45.1894 25.9263 45.49 25.799 45.7672C25.677 46.0263 25.5004 46.2569 25.2796 46.4434C25.0485 46.6351 24.7862 46.7828 24.5006 46.8761C24.2045 46.9823 23.8955 47.0419 23.5813 47.0497ZM21.2181 46.8346H23.5813C23.8747 46.8346 24.1682 46.7854 24.446 46.6921C24.7057 46.6092 24.9472 46.4745 25.155 46.3009C25.342 46.1351 25.4952 45.9304 25.5991 45.7024C25.7107 45.4537 25.7679 45.1842 25.7653 44.9122C25.7731 44.6686 25.7237 44.4277 25.6224 44.2074C25.5419 44.0364 25.4329 43.881 25.3004 43.7488C25.2043 43.653 25.0927 43.5701 24.9706 43.5079C24.8641 43.4587 24.8018 43.4302 24.7784 43.4224L24.4772 43.3628L24.7551 43.2229C24.8122 43.1918 24.8667 43.1581 24.9187 43.1192C25.0018 43.0571 25.0745 42.9819 25.1368 42.899C25.2199 42.785 25.2848 42.6581 25.3316 42.5259C25.3887 42.3471 25.4173 42.1606 25.4121 41.9715C25.4355 41.4481 25.1991 40.948 24.7784 40.632C24.5811 40.4817 24.3552 40.3703 24.1162 40.3055C23.8618 40.2355 23.5995 40.1993 23.3372 40.1993H21.2181V46.8346ZM23.5371 45.933H22.1738V43.8888H23.5371C23.8436 43.8784 24.1474 43.9587 24.4097 44.1168C24.846 44.4665 24.9135 45.1039 24.5629 45.5366C24.5188 45.5936 24.4668 45.6428 24.4097 45.6895C24.15 45.8553 23.8462 45.9382 23.5371 45.933ZM22.3919 45.7154H23.5371C23.802 45.7231 24.0643 45.6558 24.2928 45.5185C24.6278 45.2257 24.6616 44.7204 24.3707 44.3862C24.3474 44.3577 24.3214 44.3344 24.2928 44.3085C24.0643 44.1738 23.802 44.1064 23.5371 44.1168H22.3919V45.7154ZM23.293 42.9975H22.1738V41.0983H23.293C23.5735 41.0905 23.8514 41.1631 24.0903 41.3134C24.3318 41.4896 24.4616 41.7797 24.4305 42.0751C24.4512 42.3497 24.3344 42.6166 24.1162 42.7876C23.8695 42.9405 23.5839 43.0156 23.293 42.9975ZM22.3919 42.7824H23.293C23.5371 42.798 23.7813 42.7384 23.9916 42.6114C24.2928 42.2979 24.285 41.7979 23.9708 41.4947C23.7683 41.3704 23.532 41.3082 23.293 41.316H22.3919V42.7824Z" fill="white"/>
<path d="M28.8321 43.9895H31.5796V42.8702H28.8321V41.2068H31.8133V40.0901H27.6583V46.9406H31.8705V45.8239H28.8321V43.9895Z" fill="white"/>
<path d="M31.9795 47.0497H27.5493V39.9816H31.9224V41.316H28.9386V42.7617H31.6887V44.0986H28.9386V45.7154H31.9795V47.0497ZM27.7648 46.8346H31.764V45.933H28.723V43.8888H31.4705V42.9871H28.723V41.1061H31.7068V40.207H27.7648V46.8346Z" fill="white"/>
<path d="M38.7029 44.8108L35.2672 40.0901H34.2103V46.9406H35.3841V42.2354L38.8171 46.9406H39.8766V40.0901H38.7029V44.8108Z" fill="white"/>
<path d="M39.9833 47.0497H38.7628L35.4933 42.57V47.0497H34.1014V39.9816H35.3245L38.594 44.4769V39.9816H39.9833V47.0497ZM38.8718 46.8346H39.7678V40.1993H38.8121V45.1454L35.2128 40.1993H34.3195V46.8346H35.283V41.9119L38.8718 46.8346Z" fill="white"/>
<path d="M46.4752 40.0901H45.3015V46.9406H49.4019V45.8239H46.4752V40.0901Z" fill="white"/>
<path d="M49.5109 47.0497H45.1923V39.9816H46.5842V45.7154H49.5109V47.0497ZM45.4105 46.8346H49.3058V45.933H46.3661V40.1993H45.4105V46.8346Z" fill="white"/>
<path d="M52.5 40.0901H51.321V46.9432H52.5V40.0901Z" fill="white"/>
<path d="M52.6064 47.0497H51.2119V39.9816H52.6064V47.0497ZM51.4301 46.8346H52.3909V40.1993H51.4301V46.8346Z" fill="white"/>
<path d="M59.5609 44.8108L56.1278 40.0901H55.0683V46.9406H56.2421V42.2354L59.6777 46.9406H60.7347V40.0901H59.5609V44.8108Z" fill="white"/>
<path d="M60.8438 47.0497H59.6206L56.3512 42.57V47.0497H54.9619V39.9816H56.1824L59.4518 44.4769V39.9816H60.8438V47.0497ZM59.7323 46.8346H60.6256V40.1993H59.67V45.1454L56.0733 40.1993H55.1774V46.8346H56.133V41.9119L59.7323 46.8346Z" fill="white"/>
<path d="M64.3416 43.9895H67.0891V42.8702H64.3416V41.2068H67.3228V40.0901H63.1678V46.9406H67.38V45.8239H64.3416V43.9895Z" fill="white"/>
<path d="M67.484 47.0497H63.0693V39.9816H67.432V41.316H64.4482V42.7617H67.1983V44.0986H64.4482V45.7154H67.484V47.0497ZM63.2718 46.8346H67.2684V45.933H64.2327V43.8888H66.9802V42.9871H64.2327V41.1061H67.2243V40.207H63.277L63.2718 46.8346Z" fill="white"/>
<path d="M55.1933 30.4166C51.4653 30.4166 47.7223 29.8825 44.2071 29.3441H44.1749C40.5995 28.7907 36.792 28.248 32.9758 28.248C32.0535 28.248 31.1462 28.2801 30.2755 28.3445C29.2134 28.4217 28.1492 28.5461 27.1043 28.7156L24.3416 6.28502C25.3671 6.1177 26.412 5.99544 27.4569 5.91822C28.2975 5.85816 29.1768 5.82812 30.0777 5.82812C33.8186 5.82812 37.5788 6.36224 41.109 6.90064H41.1585C44.7081 7.45191 48.492 7.99031 52.2888 7.99031C53.2154 7.99031 54.1291 7.95814 55.0063 7.89379C56.0684 7.81657 57.1326 7.69216 58.1775 7.5227L60.9402 29.9511C59.9168 30.1184 58.8697 30.2407 57.8249 30.3158C56.9735 30.3801 56.0942 30.4166 55.1933 30.4166Z" fill="white"/>
<path d="M66.9149 29.7752L64.0168 6.27421L63.3288 0.697135L57.668 1.71173C56.6425 1.89621 55.6062 2.02491 54.5656 2.09998C53.8368 2.15146 53.0607 2.17935 52.2888 2.17935C48.922 2.17935 45.5445 1.69886 42.0916 1.16261H42.0486C38.269 0.564143 34.2508 0 30.0777 0C29.035 0 28.0052 0.0364655 27.0162 0.107251C25.5887 0.210213 24.1697 0.38825 22.7615 0.639219L17.7585 1.53584L18.367 6.46941L21.2651 29.9704L21.9531 35.5474L27.6139 34.5328C28.6416 34.3505 29.6757 34.2218 30.7163 34.1467C31.4387 34.0931 32.1997 34.0674 32.9759 34.0674C36.3599 34.0674 39.7589 34.55 43.2333 35.0905H43.2741C47.0236 35.6718 51.0333 36.2403 55.1934 36.2403C56.2383 36.2403 57.2724 36.2038 58.2657 36.1309C59.6932 36.0279 61.1122 35.852 62.5204 35.5989L67.5233 34.7023L66.9149 29.7752ZM57.7862 29.7752C56.9521 29.8374 56.0792 29.8674 55.1934 29.8674C51.5041 29.8674 47.7825 29.3376 44.291 28.7949H44.2545C40.6619 28.2372 36.8307 27.6923 32.9759 27.6923C32.0406 27.6923 31.1183 27.7245 30.2368 27.7889C29.3554 27.8532 28.4545 27.9497 27.5752 28.0784L24.9394 6.74397C25.7821 6.61956 26.6378 6.52947 27.4914 6.46297C28.3449 6.39648 29.1898 6.37288 30.0713 6.37288C33.7735 6.37288 37.5101 6.90485 41.0188 7.4454H41.0704C44.6415 7.99882 48.4469 8.53936 52.2824 8.53936C53.2219 8.53936 54.1485 8.50719 55.0386 8.44284C55.9287 8.37849 56.8209 8.28196 57.7002 8.15326L60.3318 29.4856C59.4954 29.6229 58.6398 29.7172 57.7862 29.7773V29.7752Z" fill="#E02228"/>
<path d="M42.5689 10.5728C42.5367 10.5707 42.5066 10.5707 42.4743 10.5728C42.0078 10.6629 41.7047 11.1155 41.795 11.5788C41.8681 11.9542 42.182 12.2352 42.5646 12.2695H42.6592C43.1258 12.1837 43.4332 11.7354 43.3472 11.2678C43.2763 10.886 42.9559 10.6007 42.5689 10.5707V10.5728ZM43.1709 11.8813C43.0419 12.0422 42.8549 12.1451 42.6485 12.1644H42.5646C42.1798 12.1687 41.853 11.8834 41.8079 11.5016C41.7864 11.3107 41.8423 11.1177 41.9627 10.9675C42.0917 10.8066 42.2787 10.7037 42.4851 10.6844H42.5689C42.9538 10.6801 43.2806 10.9654 43.3257 11.3472C43.3472 11.5381 43.2935 11.7311 43.1731 11.8813H43.1709Z" fill="#071B2D"/>
<path d="M42.5689 10.6827H42.4851C42.2787 10.702 42.0916 10.8049 41.9627 10.9658C41.8423 11.116 41.7864 11.309 41.8079 11.4999C41.853 11.8817 42.1798 12.167 42.5646 12.1627H42.6485C42.8549 12.1434 43.0419 12.0405 43.1709 11.8796C43.2913 11.7294 43.3472 11.5364 43.3257 11.3455C43.2806 10.9637 42.9538 10.6784 42.5689 10.6827ZM43.0849 11.811C42.9753 11.9482 42.814 12.0362 42.6377 12.0533H42.5646C42.2357 12.0555 41.9584 11.811 41.9197 11.4871C41.9025 11.324 41.9498 11.161 42.053 11.0344C42.1626 10.8972 42.3238 10.8092 42.5001 10.7921H42.5732C42.9022 10.7899 43.1795 11.0345 43.2182 11.3583C43.2354 11.5214 43.1881 11.6822 43.0871 11.811H43.0849Z" fill="#011A2E"/>
<path d="M52.218 20.871C52.1793 20.1095 52.0116 19.3588 51.7192 18.6531L51.5214 18.209L51.3236 18.6552C50.6786 20.101 48.6383 20.6158 48.6168 20.6222L48.419 20.6694L48.4534 20.8839C48.4534 20.9268 48.6233 21.9564 47.615 22.2867C47.4924 22.3275 47.3634 22.3511 47.2323 22.3511C46.3895 22.3511 45.5768 21.3322 44.82 19.3223C44.0482 17.2717 44.1234 15.5406 44.9985 15.2038C45.235 15.1159 45.4865 15.0709 45.7381 15.0751C46.1379 15.0816 46.5314 15.1588 46.9033 15.3068L47.2473 15.457L47.2065 15.0837L46.9635 12.8851L46.9442 12.7113L46.7722 12.692C46.0627 12.6169 45.3511 12.5826 44.6373 12.5848H44.3879C44.6588 12.1794 44.7749 11.6924 44.7211 11.2077C44.5921 10.1223 43.6655 9.30716 42.5712 9.31574H42.339C41.7585 9.37366 41.2275 9.66324 40.8641 10.118C40.189 10.9588 40.2643 12.1751 41.0404 12.9258C40.2621 13.0781 39.4925 13.2798 38.7378 13.5264L38.5723 13.5822L38.5916 13.756L38.8346 15.9546L38.8754 16.3257L39.1764 16.1112C39.6365 15.8002 40.174 15.62 40.7287 15.5921C40.8254 15.5921 40.92 15.5985 41.0146 15.6135C41.9455 15.7616 42.397 17.439 42.0896 19.6033C41.7628 21.9135 41.1114 23.0868 40.1546 23.0868C40.1052 23.089 40.0557 23.089 40.0063 23.0868C38.9464 22.971 38.8797 21.9307 38.8776 21.8856L38.8668 21.684H38.6669C38.6454 21.684 36.5169 21.6068 35.5903 20.324L35.3022 19.9315L35.2033 20.4098C35.0743 21.1606 35.0743 21.9285 35.2033 22.6793C35.4871 24.3031 36.3879 25.485 37.809 26.0985L38.2906 26.313L38.095 25.8217C38.0326 25.6652 37.9359 25.2876 38.0262 25.1182C38.052 25.0731 38.0993 25.0431 38.1509 25.0367C38.1874 25.0324 38.224 25.0324 38.2605 25.0367C38.5056 25.0667 38.74 25.1461 38.9528 25.2705C39.4645 25.5279 40.0084 25.7145 40.5717 25.8239C41.0125 25.899 41.4575 25.9354 41.9047 25.929C42.7647 25.929 43.386 25.9483 44.0826 26.8878L44.2976 27.186L44.4481 26.8471C44.9232 25.7746 45.5231 25.648 46.3658 25.4592C46.8023 25.3734 47.2323 25.2447 47.6451 25.0796C48.1696 24.8543 48.662 24.5583 49.107 24.2022C49.408 23.9749 49.608 23.8226 49.8423 23.8183C49.896 23.8119 49.9498 23.8333 49.9842 23.8741C50.1089 24.0221 50.096 24.4125 50.0702 24.5776L49.9885 25.0881L50.4077 24.79C51.6719 23.8612 52.2954 22.5184 52.218 20.871ZM42.6615 12.2716H42.5669C42.0939 12.2308 41.7435 11.8147 41.7843 11.3428C41.8187 10.961 42.1003 10.6499 42.4766 10.5749C42.5088 10.5727 42.5389 10.5727 42.5712 10.5749C43.0442 10.6113 43.3989 11.0253 43.3602 11.4972C43.3301 11.8833 43.042 12.203 42.6615 12.2737V12.2716Z" fill="#011A2E"/>
</g>
<defs>
<clipPath id="clip0_1259_234">
<rect width="86" height="48.5399" fill="white"/>
</clipPath>
</defs>
</svg>
