<svg xmlns="http://www.w3.org/2000/svg" viewBox="0 0 478.23 160"><defs><style>.cls-1,.cls-3{fill:#ef404a;}.cls-2{fill:#4d4442;}.cls-3{fill-rule:evenodd;}.cls-4{fill:none;}</style></defs><title>Asset 1</title><g id="Layer_2" data-name="Layer 2"><g id="Layer_1-2" data-name="Layer 1"><path class="cls-1" d="M130.22,60.24h34.21v8.82H143v6.57h19.87v8.42H143V92.2h22v9.35H130.22Z"/><path class="cls-1" d="M197.17,84.64,208.36,88a20.62,20.62,0,0,1-3.55,7.86,15.44,15.44,0,0,1-6,4.76,22.48,22.48,0,0,1-9.14,1.61,26.58,26.58,0,0,1-11-2,17.4,17.4,0,0,1-7.37-6.89q-3.1-4.92-3.1-12.61,0-10.26,5.45-15.76t15.43-5.5q7.8,0,12.27,3.15t6.64,9.7l-11.27,2.5a10.09,10.09,0,0,0-1.24-2.76,7.36,7.36,0,0,0-2.63-2.25,8,8,0,0,0-10.11,2.7Q181,75.18,181,80.71q0,6.87,2.09,9.42a8.21,8.21,0,0,0,11.39.49A12.66,12.66,0,0,0,197.17,84.64Z"/><path class="cls-1" d="M210.7,80.92q0-10.11,5.64-15.75T232,59.54q10.32,0,15.9,5.53t5.58,15.52a25.48,25.48,0,0,1-2.44,11.87,17.39,17.39,0,0,1-7,7.22,23.24,23.24,0,0,1-11.48,2.58A26.51,26.51,0,0,1,221,100a17.38,17.38,0,0,1-7.42-7A23.35,23.35,0,0,1,210.7,80.92Zm12.77.06q0,6.26,2.32,9a8.82,8.82,0,0,0,12.7.06q2.25-2.69,2.25-9.61,0-5.83-2.35-8.53A8.06,8.06,0,0,0,232,69.2a7.73,7.73,0,0,0-6.2,2.74Q223.47,74.67,223.47,81Z"/><path class="cls-1" d="M258.22,60.24h11.91L285.69,83.1V60.24h12v41.31h-12L270.22,78.87v22.68h-12Z"/><path class="cls-1" d="M301.73,87.88l12.14-.76a9.18,9.18,0,0,0,1.61,4.51,6.74,6.74,0,0,0,5.63,2.51,6.3,6.3,0,0,0,4.22-1.28,3.86,3.86,0,0,0,1.47-3A3.78,3.78,0,0,0,325.4,87q-1.41-1.26-6.54-2.39-8.4-1.89-12-5a10.09,10.09,0,0,1-3.6-8,10.83,10.83,0,0,1,1.84-6,12.22,12.22,0,0,1,5.55-4.45,25.94,25.94,0,0,1,10.16-1.62q7.92,0,12.08,2.94t4.94,9.37l-12,.71a5.63,5.63,0,0,0-6.26-5.33,5.17,5.17,0,0,0-3.35.94,2.91,2.91,0,0,0-1.13,2.3,2.31,2.31,0,0,0,.93,1.78c.6.54,2,1,4.29,1.52q8.35,1.8,12,3.65A12.49,12.49,0,0,1,337.55,82a11.59,11.59,0,0,1,1.65,6.11,13.08,13.08,0,0,1-2.2,7.33,13.71,13.71,0,0,1-6.14,5.08,24.7,24.7,0,0,1-9.94,1.74q-10.55,0-14.6-4.06A16,16,0,0,1,301.73,87.88Z"/><path class="cls-1" d="M343.43,60.24H356.2V74.7h13.95V60.24H383v41.31H370.15V84.84H356.2v16.71H343.43Z"/><path class="cls-1" d="M389.71,60.24H402.5v41.31H389.71Z"/><path class="cls-1" d="M409.35,60.24h21.22q6.93,0,10.38,3.3t3.45,9.38q0,6.26-3.76,9.78t-11.48,3.52h-7v15.33H409.35Zm12.82,17.61h3.13c2.46,0,4.19-.42,5.18-1.28a4.12,4.12,0,0,0,1.5-3.28,4.61,4.61,0,0,0-1.3-3.3c-.86-.9-2.49-1.35-4.87-1.35h-3.64Z"/><path class="cls-2" d="M268.49,128.38l-1.88-2.26a6,6,0,0,1-1.51.17,6.12,6.12,0,0,1-3.07-.78,5.69,5.69,0,0,1-2.17-2.21,6.44,6.44,0,0,1-.8-3.2,6.38,6.38,0,0,1,.8-3.19,5.73,5.73,0,0,1,2.17-2.2,6.43,6.43,0,0,1,6.14,0,5.73,5.73,0,0,1,2.17,2.2,6.38,6.38,0,0,1,.8,3.19,6.56,6.56,0,0,1-.68,3,5.71,5.71,0,0,1-1.9,2.17l2.85,3.11ZM262,122.2a3.28,3.28,0,0,0,1.26,1.37,3.53,3.53,0,0,0,1.86.48,3.59,3.59,0,0,0,1.87-.48,3.32,3.32,0,0,0,1.25-1.37,5,5,0,0,0,0-4.2,3.32,3.32,0,0,0-1.25-1.37,3.59,3.59,0,0,0-1.87-.48,3.53,3.53,0,0,0-1.86.48A3.28,3.28,0,0,0,262,118a5,5,0,0,0,0,4.2Z"/><path class="cls-2" d="M281.37,116.7v9.47H279v-1.91a3,3,0,0,1-1.24,1.49,3.7,3.7,0,0,1-2,.54,3.34,3.34,0,0,1-2.61-1.08,4.31,4.31,0,0,1-1-3v-5.5h2.4v5.23a2.45,2.45,0,0,0,.58,1.75,2,2,0,0,0,1.57.63,2.13,2.13,0,0,0,1.66-.67,2.71,2.71,0,0,0,.62-1.91v-5Z"/><path class="cls-2" d="M283.05,113a1.75,1.75,0,0,1,2.15,0,1.28,1.28,0,0,1,0,1.88,1.75,1.75,0,0,1-2.15,0,1.26,1.26,0,0,1,0-1.88Zm2.27,3.67v9.47h-2.41V116.7Z"/><path class="cls-2" d="M294.17,117.57a4.28,4.28,0,0,1,1.53,2.7h-2.54a2,2,0,0,0-.71-1.19,2.13,2.13,0,0,0-1.38-.43,2.07,2.07,0,0,0-1.6.7,3,3,0,0,0-.64,2.08,3,3,0,0,0,.64,2.08,2,2,0,0,0,1.6.71,2.13,2.13,0,0,0,1.38-.43,2,2,0,0,0,.71-1.19h2.54a4.28,4.28,0,0,1-1.53,2.7,4.68,4.68,0,0,1-3.05,1,5,5,0,0,1-2.46-.59A4.12,4.12,0,0,1,287,124a5.3,5.3,0,0,1-.6-2.59,5.36,5.36,0,0,1,.6-2.59,4.12,4.12,0,0,1,1.68-1.68,5.08,5.08,0,0,1,2.46-.58A4.68,4.68,0,0,1,294.17,117.57Z"/><path class="cls-2" d="M302.31,126.17,299.18,122v4.14h-2.41V113.51h2.41v7.12l3.11-3.93h2.86l-4,4.72,4.09,4.75Z"/><path class="cls-2" d="M314.59,121.9h-6.94a2.6,2.6,0,0,0,.68,1.86,2.2,2.2,0,0,0,1.57.6,2.32,2.32,0,0,0,1.4-.41,1.83,1.83,0,0,0,.71-1.11h2.55a4.19,4.19,0,0,1-.81,1.78,4.3,4.3,0,0,1-1.58,1.23,5.16,5.16,0,0,1-2.15.44,5,5,0,0,1-2.46-.59,4.12,4.12,0,0,1-1.68-1.68,5.3,5.3,0,0,1-.59-2.59,5.35,5.35,0,0,1,.59-2.59,4.12,4.12,0,0,1,1.68-1.68,5.08,5.08,0,0,1,2.46-.58,5,5,0,0,1,2.46.58,4.09,4.09,0,0,1,1.62,1.6,4.57,4.57,0,0,1,.58,2.32A4.44,4.44,0,0,1,314.59,121.9Zm-2.95-2.83a2.31,2.31,0,0,0-1.62-.59,2.36,2.36,0,0,0-1.64.59,2.46,2.46,0,0,0-.73,1.77h4.6A2.15,2.15,0,0,0,311.64,119.07Z"/><path class="cls-2" d="M319.55,117.08a3.7,3.7,0,0,1,1.95-.52v2.58h-.7c-1.77,0-2.65.82-2.65,2.47v4.56h-2.41V116.7h2.41v1.81A4,4,0,0,1,319.55,117.08Z"/><path class="cls-2" d="M333.1,124.57a3.27,3.27,0,0,1-1.37,1.25,4.64,4.64,0,0,1-2.2.47,5.79,5.79,0,0,1-2.3-.43,3.82,3.82,0,0,1-1.61-1.26,3.64,3.64,0,0,1-.7-1.92h2.57a2,2,0,0,0,.59,1.23,1.86,1.86,0,0,0,1.34.48,1.57,1.57,0,0,0,1.16-.4,1.43,1.43,0,0,0,.4-1,1.37,1.37,0,0,0-.33-.94,2.4,2.4,0,0,0-.82-.59c-.33-.14-.78-.31-1.37-.51a14.22,14.22,0,0,1-1.84-.74,3.48,3.48,0,0,1-1.23-1.07,3.12,3.12,0,0,1-.5-1.83,3,3,0,0,1,1.12-2.46,4.61,4.61,0,0,1,3-.89,4.68,4.68,0,0,1,3,.92,3.46,3.46,0,0,1,1.29,2.46h-2.6a1.86,1.86,0,0,0-.54-1.07,1.72,1.72,0,0,0-1.22-.42,1.65,1.65,0,0,0-1.08.35,1.3,1.3,0,0,0-.41,1,1.25,1.25,0,0,0,.32.88,2.39,2.39,0,0,0,.8.58,12.86,12.86,0,0,0,1.33.49,20,20,0,0,1,1.89.77,3.35,3.35,0,0,1,1.24,1.08,3.55,3.55,0,0,1,.05,3.58Z"/><path class="cls-2" d="M334.83,113a1.75,1.75,0,0,1,2.15,0,1.28,1.28,0,0,1,0,1.88,1.75,1.75,0,0,1-2.15,0,1.28,1.28,0,0,1,0-1.88Zm2.27,3.67v9.47h-2.41V116.7Z"/><path class="cls-2" d="M353.43,117.63a4.24,4.24,0,0,1,1,3v5.51H352v-5.23a2.39,2.39,0,0,0-.56-1.69,2,2,0,0,0-1.53-.59,2.09,2.09,0,0,0-1.61.64,2.56,2.56,0,0,0-.6,1.84v5h-2.39v-5.23a2.39,2.39,0,0,0-.56-1.69,2,2,0,0,0-1.53-.59,2.09,2.09,0,0,0-1.61.64,2.61,2.61,0,0,0-.59,1.84v5h-2.42V116.7h2.42v1.79a3,3,0,0,1,1.18-1.43,3.87,3.87,0,0,1,3.89,0,3.32,3.32,0,0,1,1.27,1.57,3.64,3.64,0,0,1,1.33-1.55,3.88,3.88,0,0,1,4.7.5Z"/><path class="cls-2" d="M363.72,117.16a4,4,0,0,1,1.5,1.68,6.51,6.51,0,0,1,0,5.19,4,4,0,0,1-1.5,1.68,4,4,0,0,1-2.15.58,3.6,3.6,0,0,1-2.05-.57,3.13,3.13,0,0,1-1.2-1.53v6.5h-2.41v-14h2.41v2a3.11,3.11,0,0,1,1.2-1.52,3.6,3.6,0,0,1,2.05-.56A4,4,0,0,1,363.72,117.16ZM359,119.42a3.19,3.19,0,0,0,0,4,2.41,2.41,0,0,0,1.81.74,2.36,2.36,0,0,0,1.81-.73,2.83,2.83,0,0,0,.68-2,2.86,2.86,0,0,0-.68-2,2.33,2.33,0,0,0-1.81-.74A2.41,2.41,0,0,0,359,119.42Z"/><path class="cls-2" d="M369.23,113.51v12.66h-2.41V113.51Z"/><path class="cls-2" d="M379.6,121.9h-7a2.6,2.6,0,0,0,.69,1.86,2.18,2.18,0,0,0,1.57.6,2.34,2.34,0,0,0,1.4-.41,1.83,1.83,0,0,0,.71-1.11h2.54a4.05,4.05,0,0,1-.8,1.78,4.3,4.3,0,0,1-1.58,1.23,5.2,5.2,0,0,1-2.15.44,5,5,0,0,1-2.46-.59,4.12,4.12,0,0,1-1.68-1.68,5.3,5.3,0,0,1-.6-2.59,5.36,5.36,0,0,1,.6-2.59,4.12,4.12,0,0,1,1.68-1.68,5.08,5.08,0,0,1,2.46-.58,5,5,0,0,1,2.46.58,4.09,4.09,0,0,1,1.62,1.6,4.67,4.67,0,0,1,.57,2.32A5.36,5.36,0,0,1,379.6,121.9Zm-3-2.83a2.31,2.31,0,0,0-1.62-.59,2.35,2.35,0,0,0-1.64.59,2.46,2.46,0,0,0-.74,1.77h4.6A2.12,2.12,0,0,0,376.65,119.07Z"/><path class="cls-2" d="M384.56,117.08a3.7,3.7,0,0,1,1.95-.52v2.58h-.7c-1.77,0-2.65.82-2.65,2.47v4.56h-2.42V116.7h2.42v1.81A4,4,0,0,1,384.56,117.08Z"/><path class="cls-2" d="M398.77,121a2.94,2.94,0,0,1,.66,1.91,3,3,0,0,1-1,2.4,4.37,4.37,0,0,1-3,.88h-5.19V114.09h5.08a4.35,4.35,0,0,1,2.82.81,2.78,2.78,0,0,1,1,2.26,2.85,2.85,0,0,1-.59,1.85A2.79,2.79,0,0,1,397,120,2.91,2.91,0,0,1,398.77,121Zm-6.08-1.82h2.17a2.09,2.09,0,0,0,1.37-.4,1.44,1.44,0,0,0,.48-1.16,1.46,1.46,0,0,0-.47-1.16,2.09,2.09,0,0,0-1.42-.41h-2.13Zm3.76,4.63a1.5,1.5,0,0,0,.51-1.23,1.53,1.53,0,0,0-.52-1.24,2.25,2.25,0,0,0-1.48-.43h-2.27v3.32H395A2.26,2.26,0,0,0,396.45,123.79Z"/><path class="cls-2" d="M409.3,121.9h-6.95a2.6,2.6,0,0,0,.68,1.86,2.22,2.22,0,0,0,1.58.6A2.29,2.29,0,0,0,406,124a1.79,1.79,0,0,0,.71-1.11h2.55a4.05,4.05,0,0,1-.8,1.78,4.26,4.26,0,0,1-1.59,1.23,5.12,5.12,0,0,1-2.14.44,5,5,0,0,1-2.47-.59,4.16,4.16,0,0,1-1.67-1.68,5.3,5.3,0,0,1-.6-2.59,5.36,5.36,0,0,1,.6-2.59,4.16,4.16,0,0,1,1.67-1.68,5.09,5.09,0,0,1,2.47-.58,5,5,0,0,1,2.45.58,4.11,4.11,0,0,1,1.63,1.6,4.67,4.67,0,0,1,.57,2.32A5.36,5.36,0,0,1,409.3,121.9Zm-3-2.83a2.27,2.27,0,0,0-1.61-.59,2.35,2.35,0,0,0-1.64.59,2.46,2.46,0,0,0-.74,1.77H407A2.12,2.12,0,0,0,406.34,119.07Z"/><path class="cls-2" d="M415.51,124.1v2.07h-1.27a3.49,3.49,0,0,1-2.44-.77,3.34,3.34,0,0,1-.84-2.56v-4.11h-1.32v-2H411v-2.35h2.41v2.35h2.12v2h-2.12v4.14a1.34,1.34,0,0,0,.27,1,1.28,1.28,0,0,0,.92.27Z"/><path class="cls-2" d="M421.65,124.1v2.07h-1.27a3.49,3.49,0,0,1-2.44-.77,3.34,3.34,0,0,1-.84-2.56v-4.11h-1.32v-2h1.32v-2.35h2.41v2.35h2.12v2h-2.12v4.14a1.34,1.34,0,0,0,.27,1,1.31,1.31,0,0,0,.93.27Z"/><path class="cls-2" d="M431.55,121.9h-6.94a2.6,2.6,0,0,0,.68,1.86,2.21,2.21,0,0,0,1.58.6,2.31,2.31,0,0,0,1.39-.41,1.79,1.79,0,0,0,.71-1.11h2.55a4.14,4.14,0,0,1-2.39,3,5.16,5.16,0,0,1-2.15.44,5,5,0,0,1-2.46-.59,4.12,4.12,0,0,1-1.68-1.68,5.41,5.41,0,0,1-.59-2.59,5.47,5.47,0,0,1,.59-2.59,4.12,4.12,0,0,1,1.68-1.68,5.08,5.08,0,0,1,2.46-.58,5,5,0,0,1,2.46.58,4.09,4.09,0,0,1,1.62,1.6,4.57,4.57,0,0,1,.58,2.32A4.44,4.44,0,0,1,431.55,121.9Zm-2.95-2.83a2.31,2.31,0,0,0-1.62-.59,2.36,2.36,0,0,0-1.64.59,2.46,2.46,0,0,0-.73,1.77h4.6A2.15,2.15,0,0,0,428.6,119.07Z"/><path class="cls-2" d="M436.51,117.08a3.72,3.72,0,0,1,1.95-.52v2.58h-.7c-1.77,0-2.65.82-2.65,2.47v4.56H432.7V116.7h2.41v1.81A4,4,0,0,1,436.51,117.08Z"/><polygon class="cls-3" points="38.85 38.85 159.4 38.85 159.4 55.22 164.43 55.22 164.43 33.83 33.83 33.83 33.83 101.48 125.2 101.48 125.2 96.46 38.85 96.46 38.85 38.85"/><rect class="cls-4" x="444.4" y="126.17" width="33.83" height="33.83"/><rect class="cls-4" x="444.4" width="33.83" height="33.83"/><rect class="cls-4" y="126.17" width="33.83" height="33.83"/><rect class="cls-4" width="33.83" height="33.83"/><rect class="cls-4" width="478.23" height="160"/></g></g></svg>