<svg width="192" height="26" viewBox="0 0 192 26" fill="none" xmlns="http://www.w3.org/2000/svg">
<g clip-path="url(#clip0_9_5977)">
<path d="M62.722 10.1464C62.78 10.294 62.8089 10.3635 62.8379 10.4359C63.9121 13.265 64.9806 16.0998 66.0694 18.923C66.2286 19.3371 66.4632 19.7309 66.7093 20.1015C66.9178 20.4142 67.2508 20.5677 67.6359 20.614C67.8762 20.643 67.9776 20.5764 68.0413 20.3303C69.0403 16.4965 70.0509 12.6656 71.0527 8.83176C71.2236 8.17735 71.5132 7.60112 72.0257 7.1523C72.101 7.0857 72.2081 7.05385 72.3008 7.00752C72.2689 6.96987 72.2371 6.93223 72.2052 6.89459H69.0084C69.0084 6.92354 69.0055 6.93223 69.0084 6.93802C69.0229 6.96119 69.0316 6.98435 69.0519 7.00173C69.7034 7.56927 69.7729 8.2758 69.5731 9.06341C69.1416 10.7487 68.7276 12.4368 68.3048 14.1221C68.1079 14.9068 67.9139 15.6915 67.7025 16.5341C67.6446 16.4038 67.607 16.3285 67.5751 16.2503C66.8946 14.484 66.2142 12.7148 65.5337 10.9485C65.027 9.63385 64.5231 8.31634 64.0106 7.00173C63.9758 6.91196 63.8919 6.79034 63.8137 6.77587C63.1477 6.66294 62.5686 6.96119 62.2587 7.56348C62.1719 7.73142 62.1024 7.91095 62.0416 8.09048C61.0657 10.9456 60.0928 13.8035 59.117 16.6615C59.0967 16.7194 59.0649 16.7716 59.0185 16.8671C58.9925 16.7773 58.978 16.7397 58.9693 16.6992C58.6479 15.4338 58.3236 14.1684 58.0051 12.9001C57.6373 11.4233 57.2667 9.94657 56.9192 8.46401C56.7918 7.92253 56.8816 7.4129 57.3072 7.00173C57.3333 6.97856 57.3391 6.93223 57.3594 6.8888H53.2852C53.3229 6.93802 53.3373 6.96987 53.3605 6.98725C54.0728 7.48819 54.3913 8.22368 54.5998 9.02866C55.4135 12.1675 56.2301 15.3064 57.0466 18.4481C57.2348 19.1662 57.4202 19.8872 57.6113 20.6111C58.2078 20.6546 58.7174 20.4895 59.0446 20.0118C59.311 19.6237 59.5398 19.1952 59.699 18.7522C60.4779 16.5891 61.2279 14.4116 61.9895 12.2428C62.2269 11.5681 62.4614 10.8934 62.7249 10.1435L62.722 10.1464Z" fill="white"/>
<path d="M41.4247 16.4791C41.4392 16.5833 41.4392 16.6152 41.4479 16.6441C41.6882 17.5389 41.9228 18.4336 42.1747 19.3226C42.2037 19.421 42.3079 19.5195 42.4035 19.5745C43.2345 20.061 44.1292 20.3824 45.0674 20.5851C46.8714 20.976 48.6551 20.9412 50.3867 20.2463C53.0101 19.1923 54.041 16.2996 52.6395 13.9454C52.1356 13.097 51.3973 12.4716 50.5633 11.9793C49.4514 11.322 48.2932 10.7487 47.1812 10.0942C46.4515 9.66569 45.7103 9.22556 45.0732 8.67829C43.886 7.65903 44.1379 5.88691 45.5163 5.18327C46.0201 4.92556 46.5616 4.80394 47.1233 4.80684C48.881 4.81553 50.433 5.39755 51.8084 6.47761C51.875 6.52973 51.9387 6.58186 52.0459 6.66872C52.0256 6.5529 52.0169 6.49788 52.0024 6.43997C51.8142 5.71896 51.6202 5.00085 51.4436 4.27984C51.3973 4.09452 51.3162 4.01344 51.1309 3.96421C49.712 3.59357 48.27 3.43142 46.8019 3.50091C45.8145 3.54724 44.8532 3.7123 43.9468 4.12637C42.1573 4.94004 41.555 6.42839 41.9141 8.24105C42.14 9.38192 42.8407 10.213 43.7268 10.9137C44.7402 11.7129 45.8869 12.292 47.0046 12.9204C47.8733 13.4068 48.7275 13.9194 49.5643 14.4551C49.9552 14.707 50.2245 15.0921 50.3664 15.5467C50.8587 17.1248 49.9842 18.8072 48.4003 19.2618C47.0857 19.6382 45.8232 19.3979 44.6099 18.8245C43.4893 18.2946 42.5482 17.5215 41.6535 16.6789C41.5956 16.6239 41.5319 16.5746 41.4189 16.482L41.4247 16.4791Z" fill="white"/>
<path d="M147.193 6.89169C147.816 7.38973 148.062 8.03546 148.065 8.78253C148.07 12.0401 148.07 15.3006 148.065 18.5582C148.065 19.2647 147.845 19.8872 147.248 20.3303C147.219 20.3534 147.199 20.3911 147.141 20.4664C147.283 20.4664 147.376 20.4664 147.465 20.4664C150.471 20.4664 153.474 20.4664 156.479 20.4664C156.523 20.4664 156.566 20.4635 156.61 20.4664C156.743 20.4808 156.807 20.4316 156.838 20.2897C156.966 19.7425 157.114 19.1981 157.25 18.6537C157.293 18.4829 157.334 18.312 157.397 18.063C157.209 18.2194 157.082 18.3178 156.96 18.425C156.297 18.9983 155.538 19.3544 154.649 19.3747C153.572 19.3979 152.498 19.4066 151.421 19.4153C150.503 19.421 150.349 19.2676 150.341 18.3526C150.332 16.9395 150.329 15.5293 150.323 14.1163C150.323 14.0323 150.323 13.9512 150.323 13.8586C151.603 13.8586 152.845 13.8354 154.085 13.873C154.403 13.8817 154.716 14.0844 155.026 14.206C155.101 14.235 155.168 14.2929 155.286 14.3682C155.24 13.8209 155.197 13.3258 155.15 12.7959H150.326C150.326 11.3828 150.315 10.0045 150.332 8.62906C150.338 8.17155 150.639 7.92832 151.099 7.92542C152.072 7.92253 153.045 7.91963 154.018 7.92542C154.878 7.93121 155.666 8.14839 156.329 8.72172C156.387 8.77094 156.45 8.81148 156.566 8.89546C156.393 8.18603 156.236 7.53741 156.08 6.89169H147.187H147.193Z" fill="white"/>
<path d="M168.818 9.3935C168.838 9.38482 168.858 9.37613 168.881 9.36744C168.823 8.60879 168.771 7.85014 168.705 7.09438C168.699 7.04226 168.595 6.97276 168.525 6.95828C166.805 6.56448 165.068 6.34152 163.313 6.63108C161.095 6.99882 159.381 8.13101 158.318 10.1435C157.661 11.3915 157.438 12.7437 157.481 14.1394C157.539 16.0708 158.217 17.7387 159.673 19.0446C160.887 20.1334 162.34 20.6806 163.95 20.7965C165.424 20.9065 166.878 20.7386 168.294 20.3042C168.464 20.2521 168.563 20.1623 168.627 19.9886C168.876 19.3052 169.145 18.6305 169.405 17.953C169.434 17.8748 169.46 17.7966 169.507 17.6605C169.379 17.759 169.307 17.8198 169.229 17.8719C168.647 18.2628 168.088 18.6971 167.477 19.033C164.972 20.4085 161.961 19.4905 160.693 16.9308C159.673 14.872 159.667 12.7264 160.475 10.6039C161.211 8.67539 162.795 7.64165 164.859 7.6764C166.293 7.70246 167.535 8.26421 168.609 9.20529C168.679 9.2661 168.748 9.3269 168.818 9.38771V9.3935Z" fill="white"/>
<path d="M173.706 20.4461H177.774C177.745 20.4027 177.736 20.3766 177.719 20.3621C177.07 19.8814 176.885 19.2097 176.885 18.4423C176.891 15.2803 176.885 12.1183 176.891 8.95626C176.891 8.77673 176.905 8.59141 176.937 8.41478C177.001 8.05283 177.151 7.93121 177.525 7.92542C177.933 7.91963 178.341 7.94279 178.75 7.91963C179.633 7.8704 180.357 8.2005 180.974 8.80569C181.139 8.96495 181.307 9.12131 181.483 9.28636C181.503 9.24003 181.518 9.22266 181.515 9.21108C181.347 8.47848 181.182 7.743 181 7.0133C180.985 6.95249 180.852 6.8801 180.777 6.8801C177.426 6.87431 174.076 6.87431 170.723 6.87141C170.57 6.87141 170.512 6.92354 170.48 7.06542C170.402 7.43896 170.309 7.8067 170.222 8.17734C170.141 8.5335 170.06 8.88677 169.979 9.24293C170.011 9.26609 170.045 9.28636 170.077 9.30953C170.167 9.1966 170.248 9.07209 170.352 8.97074C170.853 8.48138 171.386 8.01518 172.122 7.96017C172.776 7.91094 173.439 7.92832 174.096 7.93121C174.357 7.93121 174.508 8.10784 174.542 8.35976C174.574 8.6001 174.597 8.84044 174.597 9.08367C174.6 12.1328 174.592 15.1819 174.603 18.2309C174.606 19.0851 174.453 19.8496 173.714 20.3882C173.708 20.3911 173.711 20.4027 173.706 20.4374V20.4461Z" fill="white"/>
<path d="M76.9048 20.449C76.8759 20.3998 76.8672 20.3708 76.8498 20.3592C76.2765 19.9365 76.0651 19.3458 76.0651 18.6595C76.0622 17.2204 76.0564 15.7841 76.0564 14.345C76.0564 12.4397 76.0564 10.5315 76.068 8.62616C76.0709 7.98334 76.2881 7.42158 76.8238 7.0162C76.8585 6.99014 76.8817 6.9467 76.9222 6.89169H72.8944C72.9349 6.94381 72.9523 6.97566 72.9755 6.99303C73.5662 7.43027 73.7631 8.04704 73.7631 8.74778C73.7631 12.0401 73.766 15.3324 73.7631 18.6247C73.7631 19.3168 73.5459 19.9191 72.9668 20.3476C72.9436 20.365 72.932 20.3969 72.9002 20.449H76.9077H76.9048Z" fill="white"/>
<path d="M192 17.4926C191.959 17.6663 191.922 17.8429 191.873 18.0167C191.577 19.088 190.868 19.7946 189.88 20.2463C188.661 20.8023 187.37 20.8949 186.058 20.7994C184.938 20.7183 183.875 20.4142 182.89 19.867C182.772 19.8004 182.659 19.6585 182.621 19.5282C182.418 18.8564 182.242 18.1788 182.056 17.5041C182.036 17.4318 182.027 17.3594 181.996 17.2059C182.137 17.3304 182.224 17.4086 182.311 17.4868C183.226 18.3236 184.211 19.0562 185.415 19.4326C186.368 19.7309 187.321 19.7511 188.276 19.4181C189.796 18.8883 190.17 16.6702 188.954 15.761C188.265 15.2456 187.515 14.7967 186.765 14.3682C185.711 13.7659 184.622 13.2244 183.713 12.3992C182.444 11.2496 182.265 9.6599 182.702 8.51903C183.076 7.54031 183.886 7.06253 184.839 6.78166C186.052 6.42549 187.292 6.44287 188.531 6.59923C189.156 6.67741 189.773 6.83378 190.396 6.9496C190.549 6.97856 190.625 7.04805 190.659 7.21021C190.793 7.79223 190.946 8.36846 191.091 8.94758C191.102 8.99391 191.099 9.04314 191.105 9.10105C190.726 8.86361 190.37 8.61458 189.99 8.40899C188.777 7.75458 187.483 7.49687 186.119 7.77196C185.47 7.90226 184.946 8.24394 184.787 8.936C184.628 9.62226 184.729 10.2622 185.282 10.7718C185.948 11.3828 186.742 11.7998 187.529 12.2167C188.493 12.7293 189.472 13.2186 190.332 13.9049C191.172 14.5709 191.812 15.3643 191.962 16.4675C191.962 16.4791 191.985 16.4907 191.997 16.5023V17.4897L192 17.4926Z" fill="white"/>
<path d="M140.623 23.5241C140.69 23.4546 140.748 23.3736 140.823 23.3128C141.292 22.9305 141.807 22.5946 142.224 22.1632C142.919 21.448 143.064 20.5098 143.067 19.56C143.078 15.9637 143.073 12.3702 143.067 8.77384C143.067 8.05862 142.867 7.42448 142.256 6.97856C142.239 6.96698 142.233 6.93802 142.207 6.89458H146.18C146.177 6.92644 146.18 6.9496 146.171 6.95539C145.473 7.45634 145.334 8.18314 145.334 8.97654C145.337 12.3384 145.305 15.7002 145.346 19.062C145.375 21.3264 144.156 22.5686 142.311 23.1535C141.796 23.3185 141.254 23.4025 140.724 23.5241H140.62H140.623Z" fill="white"/>
<path d="M99.7802 18.1412C99.5862 18.9085 99.3893 19.6788 99.1895 20.4664C99.0795 20.4664 98.9752 20.4664 98.8739 20.4664C95.9985 20.4664 93.1261 20.4664 90.2507 20.4664C89.3386 20.4664 88.4294 20.4577 87.5172 20.4606C86.6399 20.4635 85.942 20.0957 85.47 19.3776C84.9546 18.5987 84.5 17.7792 84.028 16.9742C83.5763 16.204 83.1275 15.4338 82.696 14.6548C82.5165 14.3305 82.2675 14.1713 81.8997 14.1916C81.6246 14.206 81.2511 14.1047 81.0976 14.2466C80.9529 14.3798 81.0281 14.762 81.031 15.0342C81.0339 16.3082 81.0368 17.5823 81.0571 18.8535C81.0658 19.4558 81.3061 19.9625 81.7984 20.3332C81.8244 20.3534 81.8418 20.3824 81.891 20.4403H77.8719C77.9269 20.3795 77.9588 20.3332 78.0022 20.2984C78.4684 19.9307 78.7174 19.4355 78.7203 18.8564C78.7319 15.399 78.7319 11.9417 78.7203 8.48428C78.7203 7.84145 78.4163 7.32313 77.8488 6.91485C77.9501 6.89458 78.0022 6.87721 78.0543 6.87721C79.9307 6.87721 81.8042 6.86563 83.6805 6.89169C84.5695 6.90327 85.4411 7.05963 86.2547 7.45054C87.4072 8.00071 87.9603 8.93889 87.9892 10.1869C88.0298 12.0372 87.0337 13.3084 85.1197 13.8962C85.0473 13.9194 84.972 13.9425 84.8706 13.9744C85.7741 15.5148 86.663 17.0408 87.5694 18.5553C87.7286 18.8188 87.9371 19.0707 88.1803 19.2589C88.6205 19.6035 89.0982 19.9046 89.5673 20.2058C89.6224 20.2434 89.77 20.2115 89.8279 20.1623C90.2304 19.8148 90.3984 19.3487 90.4447 18.8303C90.4563 18.6913 90.4563 18.5524 90.4563 18.4163C90.4563 15.3498 90.4476 12.2804 90.4621 9.21398C90.465 8.32212 90.3781 7.49398 89.4863 6.89458C89.6571 6.8859 89.7353 6.87721 89.8164 6.87721C92.6222 6.87721 95.4252 6.87721 98.231 6.87431C98.4164 6.87431 98.5003 6.91485 98.5438 7.11465C98.6654 7.68798 98.816 8.25553 98.9694 8.88098C98.8681 8.81728 98.8102 8.78832 98.7638 8.74778C98.0891 8.15707 97.2871 7.93122 96.4097 7.92832C95.4455 7.92542 94.4812 7.92542 93.517 7.92832C93.0363 7.92832 92.7409 8.19182 92.738 8.64643C92.7294 9.99 92.7351 11.3336 92.738 12.6771C92.738 12.709 92.7496 12.7437 92.7583 12.7988H97.5535C97.5998 13.32 97.6461 13.8209 97.6925 14.3247C97.6519 14.3276 97.6288 14.3392 97.6201 14.3305C97.1017 13.9165 96.4995 13.8354 95.8566 13.8528C94.9184 13.8759 93.9803 13.8586 93.045 13.8586H92.7525C92.7467 13.9425 92.7409 14.0004 92.7409 14.0612C92.7409 15.5264 92.7467 16.9887 92.7496 18.4539C92.7496 18.506 92.7496 18.5581 92.7554 18.6103C92.8046 19.2589 92.9842 19.4239 93.6357 19.4239C94.6173 19.4239 95.5989 19.4095 96.5776 19.4181C97.704 19.4268 98.6914 19.0852 99.5196 18.3091C99.592 18.2425 99.6731 18.1817 99.7512 18.1209C99.7657 18.1296 99.7802 18.1412 99.7947 18.1499L99.7802 18.1412ZM81.0224 13.1289C81.6304 13.1289 82.2096 13.1491 82.7887 13.126C84.5232 13.0507 85.5888 11.8866 85.5222 10.1579C85.4758 8.94468 84.8967 8.22657 83.6979 8.02098C83.0782 7.91674 82.4354 7.9428 81.8042 7.92832C81.1903 7.91384 81.0397 8.0731 81.0253 8.68987C81.0253 8.72462 81.0253 8.75936 81.0253 8.79411V13.126L81.0224 13.1289Z" fill="white"/>
<path d="M62.7221 10.1464C62.4586 10.8963 62.224 11.571 61.9866 12.2457C61.225 14.4174 60.4751 16.592 59.6962 18.7551C59.5369 19.1981 59.3081 19.6266 59.0417 20.0146C58.7116 20.4924 58.2049 20.6575 57.6084 20.614C57.4202 19.8901 57.232 19.172 57.0438 18.451C56.2272 15.3122 55.4106 12.1733 54.597 9.03155C54.3885 8.22657 54.0671 7.49108 53.3576 6.99014C53.3345 6.97276 53.32 6.94091 53.2823 6.89169H57.3565C57.3362 6.93512 57.3304 6.97856 57.3044 7.00462C56.8816 7.41579 56.7889 7.92542 56.9164 8.46691C57.2667 9.94946 57.6345 11.4262 58.0022 12.903C58.3178 14.1713 58.645 15.4367 58.9665 16.7021C58.978 16.7426 58.9896 16.7802 59.0157 16.87C59.062 16.7744 59.0968 16.7223 59.1141 16.6644C60.09 13.8093 61.0629 10.9513 62.0387 8.09337C62.0995 7.91384 62.169 7.73431 62.2559 7.56637C62.5686 6.96408 63.1448 6.66583 63.8108 6.77876C63.889 6.79324 63.973 6.91485 64.0077 7.00462C64.5203 8.31923 65.0241 9.63384 65.5308 10.9513C66.2113 12.7177 66.8918 14.4869 67.5722 16.2532C67.6012 16.3314 67.6417 16.4067 67.6996 16.537C67.911 15.6944 68.105 14.9097 68.3019 14.125C68.7247 12.4368 69.1388 10.7487 69.5702 9.0663C69.7729 8.27869 69.7005 7.57216 69.049 7.00462C69.0316 6.98724 69.02 6.96408 69.0056 6.94091C69.0027 6.93512 69.0056 6.92643 69.0056 6.89748H72.2023C72.2342 6.93512 72.266 6.97276 72.2979 7.01041C72.2052 7.05674 72.0981 7.08859 72.0228 7.15519C71.5103 7.60401 71.2207 8.18313 71.0499 8.83465C70.048 12.6685 69.0345 16.4994 68.0384 20.3332C67.9747 20.5822 67.8734 20.6459 67.633 20.6169C67.2479 20.5706 66.9149 20.4171 66.7064 20.1044C66.4603 19.7338 66.2258 19.34 66.0665 18.9259C64.9778 16.0998 63.9093 13.2678 62.835 10.4388C62.8089 10.3664 62.7771 10.294 62.7192 10.1493L62.7221 10.1464Z" fill="white"/>
<path d="M41.4247 16.4791C41.5377 16.5718 41.6014 16.621 41.6593 16.676C42.554 17.5157 43.4951 18.2918 44.6157 18.8217C45.829 19.395 47.0915 19.6382 48.4061 19.2589C49.99 18.8043 50.8674 17.1219 50.3722 15.5438C50.2303 15.0892 49.961 14.7041 49.5701 14.4522C48.7333 13.9165 47.8791 13.4039 47.0104 12.9175C45.8927 12.2891 44.746 11.71 43.7326 10.9108C42.8465 10.2101 42.1458 9.38193 41.9199 8.23816C41.5608 6.4255 42.1631 4.93715 43.9526 4.12348C44.8589 3.7123 45.8203 3.54435 46.8077 3.49802C48.2758 3.42853 49.7149 3.59068 51.1367 3.96132C51.322 4.01055 51.4031 4.09163 51.4494 4.27694C51.626 5.00085 51.82 5.71896 52.0082 6.43708C52.0227 6.4921 52.0285 6.55001 52.0517 6.66583C51.9445 6.57896 51.8808 6.52684 51.8142 6.47472C50.4388 5.39465 48.8839 4.81263 47.1291 4.80395C46.5674 4.80395 46.0259 4.92267 45.5221 5.18038C44.1437 5.88691 43.8918 7.65614 45.079 8.67539C45.7161 9.22267 46.4573 9.6628 47.187 10.0914C48.299 10.7458 49.4572 11.3191 50.5691 11.9764C51.4031 12.4687 52.1385 13.0941 52.6453 13.9425C54.0468 16.2967 53.0159 19.1923 50.3925 20.2434C48.6609 20.9384 46.8772 20.9731 45.0732 20.5822C44.135 20.3795 43.2403 20.0581 42.4093 19.5716C42.3137 19.5166 42.2095 19.4182 42.1805 19.3197C41.9286 18.4278 41.694 17.5331 41.4537 16.6412C41.445 16.6123 41.445 16.5804 41.4305 16.4762L41.4247 16.4791Z" fill="white"/>
<path d="M133.905 20.8602C132.318 20.8283 130.839 20.4664 129.547 19.5108C128.05 18.4018 127.208 16.8874 126.901 15.0747C126.579 13.1723 126.877 11.3654 127.894 9.70913C128.722 8.35977 129.901 7.42738 131.406 6.92643C133.086 6.37048 134.788 6.33283 136.476 6.84536C138.605 7.49108 140.061 8.90414 140.774 10.9948C141.674 13.6356 141.332 16.1258 139.586 18.3468C138.521 19.7019 137.064 20.4316 135.376 20.7096C134.89 20.7878 134.395 20.8109 133.902 20.8573L133.905 20.8602ZM138.776 13.8614C138.77 13.7311 138.767 13.514 138.747 13.2997C138.616 11.8316 138.196 10.462 137.255 9.29795C136.181 7.96886 134.785 7.44475 133.097 7.75748C131.455 8.06441 130.393 9.08367 129.793 10.5807C128.907 12.7959 129.081 14.9878 130.152 17.1045C130.688 18.1643 131.479 18.9896 132.62 19.4124C134.319 20.0407 136.717 19.589 137.953 17.3391C138.535 16.2822 138.77 15.1413 138.776 13.8586V13.8614Z" fill="white"/>
<path d="M127.665 20.4171C126.669 20.4171 125.716 20.4432 124.764 20.4085C124.222 20.3882 123.773 20.0899 123.426 19.6816C123.18 19.395 122.951 19.0823 122.76 18.755C122.004 17.4636 121.263 16.1606 120.519 14.8604C120.458 14.7562 120.397 14.652 120.333 14.5477C120.197 14.3276 120.015 14.1915 119.737 14.2002C119.415 14.2089 119.097 14.2002 118.738 14.2002V14.4811C118.738 15.7639 118.744 17.0466 118.738 18.3294C118.732 19.1373 118.845 19.8901 119.653 20.4345H115.596C115.631 20.3882 115.651 20.3447 115.686 20.3187C116.198 19.9249 116.413 19.3863 116.442 18.7608C116.453 18.5176 116.45 18.2744 116.45 18.034C116.45 15.0023 116.447 11.9677 116.453 8.93599C116.453 8.15418 116.297 7.45633 115.625 6.96407C115.616 6.95828 115.619 6.93222 115.614 6.89458C115.671 6.88879 115.726 6.87721 115.781 6.87721C117.649 6.87721 119.514 6.86852 121.382 6.89168C122.244 6.90327 123.09 7.05094 123.886 7.4129C125.175 7.99781 125.812 9.13869 125.693 10.6212C125.566 12.1965 124.622 13.3084 122.957 13.8528C122.841 13.8904 122.728 13.928 122.592 13.9715C123.006 14.6896 123.411 15.3932 123.817 16.094C124.185 16.731 124.564 17.3623 124.92 18.0051C125.505 19.0591 126.348 19.8235 127.454 20.3013C127.52 20.3303 127.581 20.3708 127.668 20.4171H127.665ZM118.741 13.1404C119.578 13.0912 120.394 13.2302 121.196 13.0159C122.108 12.7727 122.806 12.2602 123.081 11.3278C123.2 10.9224 123.229 10.4736 123.217 10.0479C123.186 8.94468 122.572 8.20051 121.48 8.03545C120.747 7.92542 119.995 7.94569 119.25 7.93411C118.949 7.93121 118.822 8.07889 118.767 8.38003C118.747 8.49875 118.744 8.62037 118.744 8.74199C118.744 10.1116 118.744 11.4812 118.744 12.8509V13.1404H118.741Z" fill="white"/>
<path d="M108.479 20.4461H104.491C104.532 20.3911 104.546 20.3621 104.57 20.3447C105.14 19.9191 105.354 19.3255 105.354 18.6421C105.354 15.2629 105.354 11.8837 105.354 8.50455C105.354 7.91094 105.134 7.42738 104.659 7.06542C104.607 7.02488 104.564 6.97855 104.483 6.90327C104.57 6.89169 104.616 6.87721 104.662 6.87721C106.547 6.87721 108.429 6.87142 110.315 6.89169C111.036 6.90037 111.748 7.03068 112.425 7.29418C113.989 7.90226 114.771 9.17054 114.643 10.8413C114.519 12.4687 113.587 13.4329 112.11 13.957C111.316 14.2408 110.491 14.3363 109.654 14.345C109.09 14.3508 108.525 14.345 107.96 14.345C107.868 14.345 107.775 14.345 107.648 14.345C107.648 14.4695 107.648 14.5622 107.648 14.6548C107.648 15.9115 107.648 17.1682 107.648 18.4249C107.648 19.1894 107.79 19.893 108.464 20.3766C108.473 20.3824 108.47 20.4085 108.479 20.4461ZM107.648 13.32C108.505 13.2852 109.333 13.3171 110.144 13.2041C111.244 13.0536 111.948 12.3065 112.121 11.2177C112.179 10.8529 112.188 10.4736 112.159 10.1058C112.069 8.95047 111.444 8.21499 110.297 8.02677C109.643 7.91963 108.968 7.9399 108.302 7.92542C107.839 7.91384 107.7 8.05573 107.653 8.51613C107.645 8.603 107.645 8.68987 107.645 8.77674C107.645 9.88576 107.645 10.9948 107.645 12.1038V13.32H107.648Z" fill="white"/>
<path d="M147.193 6.89169H156.086C156.242 7.53741 156.401 8.18603 156.572 8.89546C156.456 8.81148 156.393 8.77094 156.335 8.72172C155.672 8.14839 154.884 7.92832 154.024 7.92542C153.051 7.91963 152.078 7.92253 151.105 7.92542C150.645 7.92542 150.344 8.17155 150.338 8.62906C150.317 10.0045 150.332 11.3828 150.332 12.7959H155.156C155.202 13.3258 155.243 13.8209 155.292 14.3682C155.171 14.2929 155.107 14.235 155.032 14.206C154.719 14.0844 154.406 13.8846 154.09 13.873C152.851 13.8354 151.609 13.8586 150.329 13.8586C150.329 13.9512 150.329 14.0323 150.329 14.1163C150.335 15.5293 150.338 16.9395 150.346 18.3526C150.352 19.2705 150.506 19.421 151.427 19.4153C152.504 19.4066 153.578 19.3979 154.655 19.3747C155.544 19.3544 156.3 18.9983 156.966 18.425C157.087 18.3178 157.215 18.2194 157.403 18.063C157.342 18.312 157.299 18.4829 157.255 18.6537C157.116 19.1981 156.972 19.7425 156.844 20.2897C156.812 20.4316 156.749 20.4808 156.615 20.4664C156.572 20.4606 156.529 20.4664 156.485 20.4664C153.48 20.4664 150.477 20.4664 147.471 20.4664C147.378 20.4664 147.289 20.4664 147.147 20.4664C147.205 20.3911 147.225 20.3534 147.254 20.3303C147.85 19.8872 148.068 19.2676 148.07 18.5582C148.076 15.3006 148.076 12.0401 148.07 8.78253C148.07 8.03256 147.821 7.38973 147.199 6.89169H147.193Z" fill="white"/>
<path d="M168.818 9.3935C168.748 9.3327 168.679 9.27189 168.609 9.21108C167.538 8.26711 166.296 7.70536 164.859 7.68219C162.795 7.64744 161.211 8.68118 160.475 10.6097C159.667 12.7322 159.673 14.8778 160.693 16.9366C161.958 19.4963 164.972 20.4142 167.477 19.0388C168.088 18.7029 168.647 18.2686 169.229 17.8777C169.307 17.8256 169.379 17.7647 169.507 17.6663C169.46 17.8024 169.434 17.8835 169.405 17.9588C169.145 18.6363 168.876 19.311 168.627 19.9944C168.563 20.1681 168.464 20.2579 168.294 20.31C166.875 20.7472 165.424 20.9123 163.95 20.8023C162.34 20.6835 160.887 20.1363 159.673 19.0504C158.217 17.7445 157.542 16.0737 157.481 14.1452C157.438 12.7495 157.661 11.3973 158.318 10.1493C159.381 8.1368 161.092 7.00462 163.313 6.63687C165.068 6.34441 166.805 6.57027 168.525 6.96408C168.595 6.97856 168.699 7.04805 168.705 7.10017C168.771 7.85882 168.826 8.61748 168.881 9.37323C168.861 9.38192 168.841 9.39061 168.818 9.39929V9.3935Z" fill="white"/>
<path d="M173.706 20.4461C173.711 20.4114 173.708 20.3998 173.714 20.3969C174.45 19.8583 174.606 19.0909 174.603 18.2396C174.592 15.1905 174.6 12.1415 174.597 9.09237C174.597 8.85203 174.574 8.6088 174.542 8.36846C174.508 8.11654 174.36 7.9428 174.096 7.93991C173.436 7.93412 172.776 7.91964 172.122 7.96886C171.386 8.02388 170.853 8.48718 170.352 8.97944C170.251 9.08078 170.17 9.2024 170.077 9.31822C170.045 9.29506 170.011 9.27479 169.979 9.25162C170.06 8.89546 170.141 8.5422 170.222 8.18604C170.309 7.8154 170.402 7.44476 170.48 7.07412C170.509 6.92934 170.57 6.87722 170.723 6.88011C174.073 6.88301 177.424 6.88011 180.777 6.8888C180.855 6.8888 180.985 6.96119 181 7.022C181.182 7.75169 181.347 8.48718 181.515 9.21977C181.518 9.23136 181.503 9.24873 181.483 9.29506C181.307 9.13001 181.139 8.97365 180.974 8.81439C180.354 8.2092 179.633 7.8791 178.75 7.92833C178.344 7.95149 177.933 7.92833 177.525 7.93412C177.151 7.93991 177.001 8.06152 176.937 8.42348C176.905 8.60011 176.894 8.78543 176.891 8.96496C176.891 12.127 176.891 15.289 176.885 18.451C176.885 19.2184 177.07 19.8901 177.719 20.3708C177.736 20.3853 177.745 20.4114 177.774 20.4548H173.706V20.4461Z" fill="white"/>
<path d="M76.9048 20.449H72.8973C72.932 20.3998 72.9436 20.365 72.9639 20.3476C73.543 19.9162 73.7602 19.3139 73.7602 18.6247C73.7631 15.3324 73.7631 12.0401 73.7602 8.74778C73.7602 8.04993 73.5604 7.43317 72.9726 6.99303C72.9494 6.97566 72.932 6.94381 72.8915 6.89169H76.9193C76.8788 6.94381 76.8556 6.98724 76.8208 7.0162C76.2851 7.42158 76.0709 7.98334 76.0651 8.62616C76.0535 10.5315 76.0535 12.4397 76.0535 14.345C76.0535 15.7841 76.0564 17.2204 76.0622 18.6595C76.0622 19.3458 76.2736 19.9365 76.8469 20.3592C76.8643 20.3737 76.873 20.3998 76.9019 20.449H76.9048Z" fill="white"/>
<path d="M15.6537 10.8008C10.957 7.73142 6.30665 4.6968 1.65918 1.66219C1.66497 1.64482 1.66787 1.63034 1.67366 1.61297C1.75474 1.60718 1.83581 1.59849 1.91689 1.59849C6.39642 1.59849 10.8788 1.59849 15.3584 1.5927C15.5871 1.5927 15.674 1.64192 15.674 1.89095C15.6653 4.76051 15.6682 7.62717 15.6682 10.4967C15.6682 10.5749 15.6624 10.6502 15.6537 10.8008Z" fill="white"/>
<path d="M20.168 1.61876H34.1278C34.1336 1.63613 34.1394 1.65061 34.1481 1.66798C29.5006 4.7026 24.856 7.73721 20.168 10.7979V1.61876Z" fill="white"/>
<path d="M1.67944 22.8408C6.31823 19.8091 10.9599 16.7802 15.6421 13.7196V22.8842H1.69971C1.69392 22.8697 1.68813 22.8552 1.67944 22.8408Z" fill="white"/>
<path d="M34.1191 22.8871H20.1622V13.7138C24.8416 16.7687 29.4861 19.8033 34.1307 22.835C34.1278 22.8524 34.122 22.8697 34.1191 22.8842V22.8871Z" fill="white"/>
<path d="M0.318542 1.30314H35.7349V24.694H0.318542V1.30314Z" fill="white"/>
<path d="M0.318542 24.5839L18.0282 13.0014L0.318542 1.41317V24.5839Z" fill="#F04D4A"/>
<path d="M35.7349 1.41607L18.0281 13.0014L35.7378 24.5839V1.41607H35.7349Z" fill="#F04D4A"/>
<path d="M20.4315 24.694H15.6219V1.30024H20.4315V24.694Z" fill="#185BA0"/>
<path d="M35.4164 1.62166H0.639932V24.3783H35.4164V1.62166ZM36.0592 25.0125H0V0.984619H36.0592V25.0154V25.0125Z" fill="#373535"/>
</g>
<defs>
<clipPath id="clip0_9_5977">
<rect width="192" height="24.0308" fill="white" transform="translate(0 0.984619)"/>
</clipPath>
</defs>
</svg>
